<svg width="428" height="68" viewBox="0 0 428 68" fill="none" xmlns="http://www.w3.org/2000/svg">
<path d="M43.7488 51.3918L47.6267 64.4938H0C2.61664 58.884 2.3531 56.7192 2.3531 50.394V15.1541C2.3531 8.82895 2.61664 6.6641 0 1.05432H48.0785L41.8475 13.5163C34.167 4.21689 25.7711 2.67325 18.6177 2.57912V31.9458H24.3969C30.722 31.9458 34.5246 29.1409 38.4967 24.5288V40.8875C34.5246 36.2755 30.722 33.4706 24.3969 33.4706H18.6177V63.1949H20.8767C33.5269 63.1949 40.2097 56.7756 43.7488 51.3541V51.3918Z" fill="#F4E3CB"/>
<path d="M50.4505 31.475C49.6975 29.9502 46.5726 24.8487 44.8219 23.3992H64.6067C63.3831 25.0746 63.7031 26.5994 64.1549 27.8042L74.2827 48.5867L79.836 37.1036C82.2644 31.9268 80.5137 26.5994 78.8383 23.3992H89.5684C85.4646 28.0489 84.3916 29.9502 81.8126 35.2023L67.581 64.7384H66.9034L50.4693 31.475H50.4505Z" fill="#F4E3CB"/>
<path d="M86.2177 45.0101C86.2177 33.9788 94.3688 23.1734 108.826 22.8722C119.556 22.6463 124.658 27.9737 124.884 33.7529C125.185 41.0569 117.881 47.0808 107.527 47.0808C105.024 47.0808 102.652 46.629 100.75 45.8572C102.2 53.0106 106.906 58.7145 113.758 58.7145C118.785 58.7145 123.415 54.686 125.787 48.888L126.39 49.3398C124.338 60.8229 114.059 65.9244 106.53 65.9244C92.9757 65.9244 86.2177 55.4202 86.2177 44.9913V45.0101ZM114.229 33.6023C114.304 28.1243 112.026 24.0205 109.052 24.0205C102.049 24.0205 98.9997 37.1037 100.524 44.9536C101.899 45.4807 103.348 45.7819 104.628 45.7819C110.709 45.7819 114.059 40.3039 114.21 33.6023H114.229Z" fill="#F4E3CB"/>
<path d="M165.357 30.0254C165.357 34.2798 161.629 37.706 157.526 37.706C156.076 37.706 154.551 37.4047 153.271 36.3317C154.42 35.1834 155.022 33.6586 155.022 32.3785C155.022 30.1007 153.648 28.35 151.822 28.35C147.643 28.35 144.217 38.3272 144.217 47.0807V52.9352C144.217 58.2626 144.217 60.0886 146.193 64.8136H128.536C130.738 60.0886 130.512 58.2626 130.512 52.9352V36.5012C130.512 34.9011 130.813 31.3244 128.159 27.6723C133.486 27.3711 139.341 26.0723 144.217 23.418V38.3272C145.967 31.0232 149.92 22.7214 157.526 22.7214C162.401 22.7214 165.357 26.1475 165.357 30.0254Z" fill="#F4E3CB"/>
<path d="M225.276 66.2633C227.61 61.2559 227.384 59.317 227.384 53.6696V23.4558C227.384 21.7616 227.704 17.9589 224.881 14.081C230.528 13.761 236.759 12.3868 241.936 9.56311V53.6696C241.936 59.317 241.936 61.2559 244.044 66.2633H225.295H225.276Z" fill="#F4E3CB"/>
<path d="M246.774 45.1043C246.774 33.7153 254.85 21.6675 270.682 21.6675C286.513 21.6675 294.194 33.5459 294.194 44.9349C294.194 56.3239 286.363 67.5623 270.682 67.5623C255.001 67.5623 246.774 56.3239 246.774 45.1043ZM280.056 44.8596C280.056 33.9601 276.913 22.4016 270.606 22.4016C264.3 22.4016 261.081 33.9601 261.081 44.8596C261.081 55.7591 264.319 66.7528 270.606 66.7528C276.894 66.7528 280.056 55.8533 280.056 44.8596Z" fill="#F4E3CB"/>
<path d="M297.093 45.1043C297.093 33.7153 305.168 21.6675 321 21.6675C336.832 21.6675 344.512 33.5459 344.512 44.9349C344.512 56.3239 336.681 67.5623 321 67.5623C305.319 67.5623 297.093 56.3239 297.093 45.1043ZM330.375 44.8596C330.375 33.9601 327.231 22.4016 320.925 22.4016C314.619 22.4016 311.399 33.9601 311.399 44.8596C311.399 55.7591 314.637 66.7528 320.925 66.7528C327.212 66.7528 330.375 55.8533 330.375 44.8596Z" fill="#F4E3CB"/>
<path d="M380.618 53.8202V41.1323C380.618 34.0165 378.924 30.3833 375.686 30.3833C372.128 30.3833 367.365 36.5955 364.786 47.4386V53.6508C364.786 59.2982 364.786 61.2372 366.895 66.2445H348.145C350.48 61.2372 350.254 59.2982 350.254 53.6508V36.2755C350.254 34.5813 350.649 30.7787 347.75 26.9008C353.397 26.5807 359.704 25.2065 364.805 22.3828V44.2007C367.384 35.0707 373.86 21.6675 383.385 21.6675C394.134 21.6675 395.188 32.0023 395.188 42.4312V45.349C397.447 36.539 404.243 21.6863 414.089 21.6863C424.837 21.6863 425.892 32.0211 425.892 42.45V53.839C425.892 59.4864 425.892 61.4254 428 66.4328H409.251C411.585 61.4254 411.359 59.4864 411.359 53.839V40.5111C411.359 33.8847 409.665 30.421 406.427 30.421C402.718 30.421 397.692 37.1226 395.188 49.001V53.839C395.188 59.4864 395.188 61.4254 397.297 66.4328H378.547C380.882 61.4254 380.656 59.4864 380.656 53.839L380.618 53.8202Z" fill="#F4E3CB"/>
<path d="M208.127 27.936C212.231 24.6793 214.169 20.1237 214.169 15.7375C214.169 7.36049 206.997 0 194.065 0H186.874C186.874 0.489444 186.892 0.997715 186.911 1.48716H187.551C196.399 1.48716 200.672 8.09464 200.672 14.8904C200.672 21.6861 196.324 28.2936 187.758 28.7266C187.777 29.2725 187.796 29.8373 187.815 30.3832C197.641 30.8726 202.63 39.0049 202.63 47.0996C202.63 55.1942 197.98 62.9877 188.718 63.6842C188.718 64.2301 188.718 64.7949 188.718 65.3408H194.799C209.877 65.3408 219.365 54.5354 219.365 44.1253C219.365 37.8001 215.92 31.5503 208.108 27.936H208.127Z" fill="#F4E3CB"/>
<path d="M181.113 46.4784C180.944 45.6877 181.32 44.4265 180.963 43.1275C180.323 40.8497 178.93 39.2496 177.028 37.9884C174.958 36.633 173.339 34.8823 172.51 32.548C172.134 31.4938 172.002 30.3455 171.757 29.2537C171.644 28.8019 171.475 28.3501 171.4 27.8795C171.268 27.1265 171.55 26.8253 172.303 26.8818C174.205 27.0324 175.202 27.8607 175.616 29.4419C176.068 31.1173 176.558 32.7928 177.179 34.4305C177.593 35.5035 178.158 36.4448 179.118 37.1601C179.796 37.6684 180.228 38.4402 180.643 39.1932C180.718 39.3249 180.774 39.4944 180.925 39.4567C181.094 39.4191 181 39.2496 181 39.1367C180.887 37.7437 180.85 36.3318 180.624 34.9576C180.247 32.7363 180.228 30.4961 179.796 28.2748C179.513 26.8065 179.513 25.2817 179.4 23.7945C179.306 22.6838 179.099 22.3262 178.082 22.1379C176.501 21.8367 175.146 21.1026 173.753 20.3872C171.607 19.2766 170.063 17.5823 168.708 15.6999C168.199 14.9845 167.465 14.4386 167.126 13.5538C166.336 11.5584 165.715 9.56298 165.959 7.37931C166.053 6.51337 166.279 5.72273 166.75 4.98857C166.882 4.80032 166.976 4.53677 167.164 4.42382C168.482 3.652 169.291 3.99085 169.329 5.36506C169.385 7.30401 170.12 9.05471 170.647 10.8242C171.531 13.7421 173.226 16.3211 175.278 18.6177C176.181 19.6154 177.875 21.592 179.438 21.2155C180.643 20.9331 180.887 19.5966 181.433 18.5989C183.127 15.4363 184.991 12.3867 186.309 9.03588C186.798 7.79345 187.194 6.55101 187.551 5.27093C187.721 4.66853 188.06 4.16027 188.436 3.67082C188.982 2.95548 189.773 3.08725 190.413 3.7273C192.954 6.24982 190.601 10.5795 189.773 13.2903C189.358 14.6457 188.493 15.6999 187.758 16.8105C187.1 17.8082 186.252 18.7306 185.217 19.4272C183.692 20.4437 181.076 21.1967 181.377 23.4557C181.509 24.5099 182.149 25.5264 182.28 26.6747C182.45 28.3125 182.469 29.969 182.563 31.6256C182.695 33.6963 182.807 35.7482 182.977 37.819C183.033 38.5155 183.127 39.212 183.071 39.9085C183.071 40.0215 183.146 40.1909 183.259 40.2662C183.429 40.3791 183.523 40.1909 183.56 40.0779C183.956 39.0802 184.389 38.1013 184.408 36.9718C184.464 34.2987 184.728 31.6444 185.537 29.0655C185.876 27.9548 186.572 27.07 187.1 26.0723C187.325 25.677 187.834 25.3193 188.455 25.4887C189.057 25.6393 189.81 26.5241 189.829 27.1641C189.848 27.7854 189.829 28.4254 189.566 28.9713C188.813 30.5338 188.549 32.2092 188.267 33.8658C187.928 35.8612 186.949 37.5366 185.932 39.1932C185.104 40.5486 184.332 41.9604 183.259 43.1464C183.015 43.4287 182.883 43.7864 182.883 44.1817C182.883 46.3466 183.052 48.4926 182.695 50.6386C182.638 50.9398 182.695 51.2034 182.826 51.4669C182.864 51.5422 182.883 51.6928 182.939 51.7116C183.146 51.7493 183.071 51.561 183.109 51.4669C183.335 50.9586 183.429 50.3939 183.636 49.8668C184.822 46.7796 186.158 43.5229 187.853 40.7744C188.191 40.2474 188.568 39.7956 189.001 39.3438C190.657 37.5554 190.94 40.1156 190.883 41.3957C190.77 44.0876 188.944 46.5348 187.721 48.8879C186.855 50.5445 185.048 51.4481 184.012 52.9917C182.977 54.5542 182.393 56.4555 182.337 58.3191C182.28 60.2581 181.791 62.1406 181.584 64.0607C181.527 64.7007 180.981 65.1337 180.473 65.0961C179.814 65.0396 179.287 64.5125 179.381 63.8348C179.513 62.95 179.701 62.0653 179.984 61.2181C181.076 57.8485 181.716 54.1965 179.513 51.1469C177.781 48.7562 175.146 47.1749 173.395 44.8029C172.303 43.3158 171.55 41.6404 171.475 39.7579C171.456 39.212 171.701 38.8732 172.266 38.7979C173.15 38.6661 174.393 39.3814 174.769 40.4733C175.409 42.3369 176.727 43.7864 177.932 45.3112C179.099 46.7984 179.739 48.3608 180.718 49.9421C180.774 50.0362 180.925 50.168 181.019 50.168C181.189 50.1492 181.151 49.9609 181.151 49.8292C181.151 48.8879 181.151 47.9467 181.151 46.5348L181.113 46.4784ZM182.676 52.5399H182.751L182.732 52.4458L182.676 52.5399Z" fill="#F4E3CB"/>
<path d="M185.461 6.09916C185.461 7.64279 184.765 8.92288 183.955 10.1653C182.77 11.9725 181.696 13.8361 180.661 15.7186C180.172 16.6222 180.059 17.5634 179.983 18.5423C179.927 19.3518 179.381 19.5777 178.741 19.1071C178.477 18.9188 178.214 18.6929 178.026 18.4106C176.99 16.8858 175.767 15.5304 174.618 14.0997C173.715 12.989 173.037 11.7466 172.491 10.4477C171.945 9.11112 171.305 7.79339 170.985 6.36271C170.571 4.57435 170.872 3.67077 172.341 2.59775C173.564 1.69416 175.014 1.20473 176.331 0.489388C176.633 0.319965 176.99 0.33878 177.31 0.376429C177.819 0.451729 178.365 0.489385 178.835 0.677633C180.115 1.1859 181.433 1.56239 182.751 1.93889C184.407 2.39068 184.991 3.6896 185.386 5.12028C185.48 5.42148 185.443 5.77914 185.461 6.09916Z" fill="#F4E3CB"/>
</svg>
