<svg width="989" height="156" viewBox="0 0 989 156" fill="none" xmlns="http://www.w3.org/2000/svg">
<path d="M101.015 118.663L109.969 148.915H0C6.04179 135.962 5.43327 130.963 5.43327 116.359V34.9902C5.43327 20.3856 6.04179 15.387 0 2.43408H111.013L96.6252 31.2087C78.8911 9.73641 59.5052 6.17216 42.988 5.95483V73.762H56.3321C70.9368 73.762 79.7169 67.2856 88.8883 56.6364V94.4085C79.7169 83.7593 70.9368 77.2828 56.3321 77.2828H42.988V145.916H48.204C77.4132 145.916 92.8437 131.094 101.015 118.576V118.663Z" fill="#DE0D22"/>
<path d="M116.49 72.6754C114.751 69.1547 107.536 57.3753 103.493 54.0284H149.176C146.351 57.8969 147.09 61.4177 148.133 64.1995L171.518 112.186L184.34 85.6718C189.947 73.7186 185.905 61.4177 182.036 54.0284H206.812C197.337 64.7646 194.859 69.1546 188.904 81.2817L156.044 149.48H154.479L116.533 72.6754H116.49Z" fill="#DE0D22"/>
<path d="M199.075 103.927C199.075 78.4563 217.896 53.5068 251.278 52.8113C276.054 52.2897 287.833 64.5906 288.355 77.9347C289.05 94.7996 272.185 108.709 248.279 108.709C242.498 108.709 237.021 107.666 232.631 105.883C235.978 122.401 246.844 135.571 262.666 135.571C274.272 135.571 284.964 126.269 290.441 112.882L291.832 113.925C287.094 140.439 263.362 152.218 245.975 152.218C214.68 152.218 199.075 127.964 199.075 103.884V103.927ZM263.753 77.587C263.927 64.9383 258.667 55.4627 251.8 55.4627C235.63 55.4627 228.589 85.6717 232.109 103.797C235.282 105.014 238.629 105.71 241.585 105.71C255.625 105.71 263.362 93.0609 263.709 77.587H263.753Z" fill="#DE0D22"/>
<path d="M381.807 69.3285C381.807 79.1518 373.201 87.0627 363.725 87.0627C360.378 87.0627 356.857 86.3672 353.902 83.8896C356.553 81.2382 357.944 77.7174 357.944 74.7617C357.944 69.5023 354.771 65.46 350.555 65.46C340.905 65.46 332.994 88.4971 332.994 108.709V122.227C332.994 134.528 332.994 138.744 337.558 149.654H296.787C301.873 138.744 301.351 134.528 301.351 122.227V84.2808C301.351 80.5862 302.047 72.3276 295.918 63.8952C308.219 63.1997 321.737 60.2006 332.994 54.0719V88.4971C337.037 71.6322 346.165 52.4636 363.725 52.4636C374.983 52.4636 381.807 60.3745 381.807 69.3285Z" fill="#DE0D22"/>
<path d="M520.159 153.001C525.549 141.439 525.027 136.962 525.027 123.922V54.1589C525.027 50.247 525.766 41.4668 519.246 32.5128C532.286 31.7739 546.673 28.6009 558.627 22.0809V123.922C558.627 136.962 558.627 141.439 563.495 153.001H520.203H520.159Z" fill="#DE0D22"/>
<path d="M569.798 104.145C569.798 77.8479 588.445 50.0295 625 50.0295C661.555 50.0295 679.289 77.4566 679.289 103.754C679.289 130.051 661.207 156 625 156C588.793 156 569.798 130.051 569.798 104.145ZM646.646 103.58C646.646 78.4129 639.387 51.7247 624.826 51.7247C610.265 51.7247 602.832 78.4129 602.832 103.58C602.832 128.747 610.309 154.131 624.826 154.131C639.344 154.131 646.646 128.964 646.646 103.58Z" fill="#DE0D22"/>
<path d="M685.983 104.145C685.983 77.8479 704.63 50.0295 741.185 50.0295C777.74 50.0295 795.474 77.4566 795.474 103.754C795.474 130.051 777.392 156 741.185 156C704.978 156 685.983 130.051 685.983 104.145ZM762.831 103.58C762.831 78.4129 755.572 51.7247 741.011 51.7247C726.45 51.7247 719.017 78.4129 719.017 103.58C719.017 128.747 726.493 154.131 741.011 154.131C755.529 154.131 762.831 128.964 762.831 103.58Z" fill="#DE0D22"/>
<path d="M878.842 124.27V94.9735C878.842 78.5433 874.93 70.1544 867.454 70.1544C859.239 70.1544 848.242 84.4982 842.287 109.535V123.879C842.287 136.918 842.287 141.395 847.155 152.957H803.863C809.253 141.395 808.731 136.918 808.731 123.879V83.7592C808.731 79.8473 809.644 71.0672 802.95 62.1131C815.99 61.3742 830.551 58.2012 842.331 51.6812V102.058C848.285 80.9774 863.238 50.0295 885.232 50.0295C910.051 50.0295 912.485 73.8925 912.485 97.9727V104.71C917.701 84.3678 933.392 50.073 956.125 50.073C980.944 50.073 983.378 73.9359 983.378 98.0161V124.313C983.378 137.353 983.378 141.83 988.246 153.392H944.954C950.344 141.83 949.822 137.353 949.822 124.313V93.5391C949.822 78.239 945.91 70.2413 938.434 70.2413C929.871 70.2413 918.266 85.7152 912.485 113.142V124.313C912.485 137.353 912.485 141.83 917.353 153.392H874.061C879.451 141.83 878.929 137.353 878.929 124.313L878.842 124.27Z" fill="#DE0D22"/>
<path d="M480.562 64.5037C490.037 56.9841 494.514 46.4653 494.514 36.3377C494.514 16.9953 477.954 0 448.093 0H431.489C431.489 1.13012 431.532 2.30371 431.575 3.43383H433.053C453.482 3.43383 463.349 18.6904 463.349 34.3817C463.349 50.073 453.309 65.3296 433.531 66.3293C433.575 67.5899 433.618 68.8938 433.662 70.1544C456.351 71.2845 467.87 90.0618 467.87 108.752C467.87 127.443 457.134 145.438 435.748 147.046C435.748 148.306 435.748 149.61 435.748 150.871H449.788C484.604 150.871 506.511 125.921 506.511 101.885C506.511 87.28 498.557 72.8492 480.518 64.5037H480.562Z" fill="#DE0D22"/>
<path d="M418.188 107.318C417.797 105.492 418.666 102.58 417.84 99.5809C416.362 94.3215 413.146 90.6269 408.756 87.7146C403.975 84.5851 400.236 80.5427 398.324 75.1529C397.455 72.7188 397.15 70.0674 396.585 67.5463C396.324 66.5032 395.933 65.46 395.759 64.3733C395.455 62.6347 396.107 61.9392 397.846 62.0696C402.236 62.4173 404.54 64.3298 405.496 67.981C406.539 71.8495 407.669 75.718 409.104 79.4995C410.06 81.9771 411.364 84.1504 413.581 85.8021C415.145 86.9757 416.145 88.7578 417.101 90.4965C417.275 90.8007 417.406 91.1919 417.753 91.105C418.145 91.0181 417.927 90.6269 417.927 90.3661C417.666 87.1496 417.579 83.8896 417.058 80.7166C416.189 75.5876 416.145 70.4151 415.145 65.2861C414.493 61.8957 414.493 58.375 414.233 54.9412C414.015 52.3767 413.537 51.5508 411.19 51.1161C407.539 50.4207 404.409 48.7255 401.193 47.0738C396.238 44.5093 392.673 40.5973 389.544 36.2507C388.37 34.599 386.675 33.3385 385.893 31.2956C384.067 26.6881 382.633 22.0807 383.198 17.0387C383.415 15.0392 383.937 13.2137 385.023 11.5185C385.328 11.0838 385.545 10.4753 385.98 10.2145C389.022 8.43237 390.891 9.21476 390.978 12.3878C391.109 16.8648 392.804 20.9072 394.021 24.993C396.064 31.7302 399.976 37.6851 404.713 42.988C406.8 45.2917 410.712 49.8556 414.319 48.9863C417.101 48.3343 417.666 45.2482 418.927 42.9445C422.839 35.6422 427.142 28.6007 430.185 20.8637C431.315 17.9949 432.228 15.1261 433.053 12.1704C433.445 10.7795 434.227 9.60595 435.096 8.47583C436.357 6.82412 438.182 7.12838 439.66 8.60623C445.528 14.4307 440.095 24.4279 438.182 30.687C437.226 33.8166 435.227 36.2507 433.532 38.8152C432.01 41.1189 430.054 43.2488 427.664 44.857C424.143 47.2042 418.101 48.9428 418.796 54.1588C419.101 56.5929 420.579 58.94 420.883 61.5915C421.274 65.373 421.318 69.198 421.535 73.0231C421.839 77.8043 422.1 82.5421 422.491 87.3234C422.622 88.9317 422.839 90.5399 422.708 92.1482C422.708 92.409 422.882 92.8002 423.143 92.974C423.534 93.2348 423.752 92.8002 423.839 92.5394C424.751 90.2357 425.751 87.9754 425.795 85.3675C425.925 79.1953 426.533 73.0666 428.403 67.1117C429.185 64.5472 430.793 62.5043 432.01 60.2006C432.532 59.2878 433.705 58.4619 435.14 58.8531C436.531 59.2008 438.269 61.2438 438.313 62.7216C438.356 64.156 438.313 65.6338 437.704 66.8943C435.966 70.502 435.357 74.3705 434.705 78.1955C433.923 82.8029 431.662 86.6714 429.315 90.4965C427.403 93.626 425.621 96.886 423.143 99.6243C422.578 100.276 422.274 101.102 422.274 102.015C422.274 107.014 422.665 111.969 421.839 116.924C421.709 117.619 421.839 118.228 422.143 118.836C422.23 119.01 422.274 119.358 422.404 119.401C422.882 119.488 422.708 119.054 422.795 118.836C423.317 117.663 423.534 116.359 424.012 115.142C426.751 108.013 429.837 100.494 433.749 94.1476C434.531 92.9305 435.401 91.8874 436.4 90.8442C440.225 86.7149 440.877 92.6263 440.747 95.582C440.486 101.798 436.27 107.448 433.445 112.882C431.445 116.707 427.272 118.793 424.882 122.357C422.491 125.965 421.144 130.355 421.013 134.658C420.883 139.135 419.753 143.482 419.275 147.915C419.144 149.393 417.884 150.393 416.71 150.306C415.189 150.175 413.972 148.958 414.189 147.394C414.493 145.351 414.928 143.308 415.58 141.352C418.101 133.571 419.579 125.139 414.493 118.097C410.494 112.577 404.409 108.926 400.367 103.449C397.846 100.016 396.107 96.147 395.933 91.8004C395.89 90.5399 396.455 89.7575 397.759 89.5837C399.802 89.2794 402.671 90.9311 403.54 93.4522C405.018 97.7553 408.06 101.102 410.842 104.623C413.537 108.057 415.015 111.664 417.275 115.316C417.406 115.533 417.753 115.837 417.971 115.837C418.362 115.794 418.275 115.359 418.275 115.055C418.275 112.882 418.275 110.708 418.275 107.448L418.188 107.318ZM421.796 121.314H421.97L421.926 121.097L421.796 121.314Z" fill="#DE0D22"/>
<path d="M428.228 14.083C428.228 17.6472 426.62 20.6029 424.751 23.4717C422.012 27.6444 419.535 31.9476 417.144 36.2942C416.014 38.3805 415.753 40.5539 415.579 42.8141C415.449 44.6831 414.188 45.2047 412.711 44.1181C412.102 43.6834 411.494 43.1618 411.059 42.5098C408.668 38.9891 405.843 35.8595 403.191 32.5561C401.105 29.9916 399.54 27.1228 398.28 24.1236C397.019 21.0375 395.541 17.9949 394.803 14.6915C393.846 10.5622 394.542 8.47583 397.932 5.99826C400.757 3.91188 404.104 2.78178 407.147 1.13007C407.842 0.738876 408.668 0.782319 409.407 0.869252C410.581 1.04312 411.841 1.13006 412.928 1.56473C415.884 2.73831 418.926 3.60763 421.969 4.47695C425.794 5.52014 427.141 8.51931 428.054 11.8227C428.271 12.5182 428.185 13.344 428.228 14.083Z" fill="#DE0D22"/>
</svg>
